<?xml version="1.0" encoding="UTF-8"?>
<!DOCTYPE svg PUBLIC "-//W3C//DTD SVG 1.1//EN" "http://www.w3.org/Graphics/SVG/1.1/DTD/svg11.dtd">
<svg xmlns="http://www.w3.org/2000/svg" version="1.1" width="512px" height="512px" style="shape-rendering:geometricPrecision; text-rendering:geometricPrecision; image-rendering:optimizeQuality; fill-rule:evenodd; clip-rule:evenodd">
<g><path style="opacity:1" fill="#6499dc" d="M 40.5,-0.5 C 183.833,-0.5 327.167,-0.5 470.5,-0.5C 491.833,5.5 505.5,19.1667 511.5,40.5C 511.5,183.833 511.5,327.167 511.5,470.5C 505.5,491.833 491.833,505.5 470.5,511.5C 327.167,511.5 183.833,511.5 40.5,511.5C 19.1667,505.5 5.5,491.833 -0.5,470.5C -0.5,327.167 -0.5,183.833 -0.5,40.5C 5.5,19.1667 19.1667,5.5 40.5,-0.5 Z"/></g>
<g><path style="opacity:1" fill="#d7e4f5" d="M 278.5,116.5 C 225.167,116.5 171.833,116.5 118.5,116.5C 118.5,209.5 118.5,302.5 118.5,395.5C 117.501,302.335 117.167,209.001 117.5,115.5C 171.336,115.168 225.003,115.501 278.5,116.5 Z"/></g>
<g><path style="opacity:1" fill="#fefefe" d="M 278.5,116.5 C 306.469,117.736 332.136,125.903 355.5,141C 382.957,164.12 394.124,193.62 389,229.5C 384.872,255.267 372.039,275.433 350.5,290C 343.107,294.027 335.774,298.027 328.5,302C 350.152,332.989 371.819,363.989 393.5,395C 371.5,395.667 349.5,395.667 327.5,395C 307.947,367.62 288.614,340.12 269.5,312.5C 238.338,311.502 207.004,311.168 175.5,311.5C 175.5,339.5 175.5,367.5 175.5,395.5C 156.5,395.5 137.5,395.5 118.5,395.5C 118.5,302.5 118.5,209.5 118.5,116.5C 171.833,116.5 225.167,116.5 278.5,116.5 Z"/></g>
<g><path style="opacity:1" fill="#8bb2e5" d="M 269.5,146.5 C 238.5,146.5 207.5,146.5 176.5,146.5C 176.5,191.5 176.5,236.5 176.5,281.5C 175.501,236.336 175.168,191.003 175.5,145.5C 207.004,145.168 238.338,145.502 269.5,146.5 Z"/></g>
<g><path style="opacity:1" fill="#6499dc" d="M 269.5,146.5 C 302.037,148.542 321.204,165.542 327,197.5C 329.009,215.651 327.009,233.318 321,250.5C 311.004,268.766 295.504,278.933 274.5,281C 241.835,281.5 209.168,281.667 176.5,281.5C 176.5,236.5 176.5,191.5 176.5,146.5C 207.5,146.5 238.5,146.5 269.5,146.5 Z"/></g>
<g><path style="opacity:1" fill="#8bb2e5" d="M 269.5,312.5 C 238.5,312.5 207.5,312.5 176.5,312.5C 176.831,340.338 176.498,368.005 175.5,395.5C 175.5,367.5 175.5,339.5 175.5,311.5C 207.004,311.168 238.338,311.502 269.5,312.5 Z"/></g>
</svg>
