<svg id="Слой_3" data-name="Слой 3" xmlns="http://www.w3.org/2000/svg" xmlns:xlink="http://www.w3.org/1999/xlink" viewBox="0 0 512 512"><defs><style>.cls-1{stroke:#595959;stroke-width:6px;fill:url(#Безымянный_градиент_19);}.cls-2{fill:#bf1b2d;}</style><linearGradient id="Безымянный_градиент_19" x1="256.5" y1="16" x2="256.5" y2="495" gradientUnits="userSpaceOnUse"><stop offset="0" stop-color="#fff"/><stop offset="0.28" stop-color="#fcfcfc"/><stop offset="0.47" stop-color="#f3f3f3"/><stop offset="0.62" stop-color="#e4e4e4"/><stop offset="0.77" stop-color="#cfcfcf"/><stop offset="0.9" stop-color="#b4b4b4"/><stop offset="1" stop-color="#999"/></linearGradient></defs><title>expim-favicon</title><circle class="cls-1" cx="256.5" cy="255.5" r="239.5"/><g id="Expim"><path class="cls-2" d="M288.12,383.12H351.2c-3.72,6.16-6.81,11.39-10,16.55-4.52,7.31-9.53,14.36-13.55,21.94-2.73,5.14-6,6.79-11.8,6.76-45.5-.25-91-.07-136.5-.16-27.48-.06-47.59-15.75-52.88-41.17a53.18,53.18,0,0,1-.79-10.71q-.06-118.54,0-237.09c0-29.3,21.4-51.72,50.69-52,47.65-.44,95.31-.18,143,0,2.16,0,5.22,1.34,6.34,3,8.71,13.38,17,27,26.09,41.52-3.36.17-5.82.39-8.28.39q-79.38,0-158.78,0c-12.27,0-12.27,0-12.27,12.34v91.63h8.75q114.24,0,228.47-.13c5.21,0,7.73,2.06,10.92,5.88,8.78,10.51,9,19.74.14,30.61-3.93,4.86-7,7-13.18,7q-112.8-.31-225.6-.13h-9c-.19,2.57-.48,4.62-.49,6.68q0,43.82,0,87.65c0,8.77.62,9.38,9.37,9.39C217,383.13,252.2,383.12,288.12,383.12Z"/></g></svg>