<?xml version="1.0" encoding="UTF-8" standalone="no" ?>
<svg xmlns="http://www.w3.org/2000/svg" version="1.1" width="261" height="261" viewBox="0 0 261 261" xml:space="preserve">
<g transform="matrix(3.2 0 0 3.2 131 131)"  >
<linearGradient id="SVGID_503" gradientUnits="userSpaceOnUse" gradientTransform="matrix(1 0 0 1 -40 -40)"  x1="40" y1="80" x2="40" y2="0">
<stop offset="0%" style="stop-color:rgba(211, 211, 211, 1);"/>
<stop offset="77.958%" style="stop-color:rgba(255, 255, 255, 1);"/>
</linearGradient>
<circle style="stroke: rgb(89,89,89); stroke-width: 6; stroke-dasharray: none; stroke-linecap: butt; stroke-dashoffset: 0; stroke-linejoin: miter; stroke-miterlimit: 4; fill: url(#SVGID_503); fill-rule: nonzero; opacity: 1;" vector-effect="non-scaling-stroke"  cx="0" cy="0" r="40" />
</g>
<g transform="matrix(0.75 0 0 0.75 140.9 132.64)"  >
<path style="stroke: none; stroke-width: 1; stroke-dasharray: none; stroke-linecap: butt; stroke-dashoffset: 0; stroke-linejoin: miter; stroke-miterlimit: 4; fill: rgb(191,27,45); fill-rule: nonzero; opacity: 1;"  transform=" translate(-384.86, -399.64)" d="M 393 486.928955 C 407.630646 486.928955 421.761322 486.928955 436.891754 486.928955 C 434.302399 491.220215 432.153534 494.855255 429.932068 498.445343 C 426.782959 503.534546 423.297424 508.440521 420.499054 513.713196 C 418.600128 517.291199 416.30368 518.440186 412.288269 518.418335 C 380.624542 518.245972 348.959381 518.36853 317.29483 518.30542 C 298.173615 518.267334 284.181274 507.345459 280.499664 489.657135 C 279.996155 487.23819 279.952606 484.692078 279.951294 482.204681 C 279.92218 427.20816 279.911743 372.21167 279.938019 317.215149 C 279.947754 296.823822 294.825256 281.225372 315.209503 281.037109 C 348.371155 280.730774 381.537628 280.910248 414.70163 281.020386 C 416.20694 281.025391 418.33609 281.953857 419.111084 283.14447 C 425.172821 292.457062 430.974243 301.939056 437.273071 312.037415 C 434.932251 312.15332 433.221252 312.31131 431.510162 312.311951 C 394.679169 312.326141 357.848145 312.320831 321.017151 312.324219 C 312.478424 312.324982 312.477722 312.333282 312.477509 320.90921 C 312.477051 340.074677 312.477325 359.240112 312.477325 378.405579 C 312.477325 380.215576 312.477325 382.025574 312.477325 384.677246 C 314.755188 384.677246 316.660095 384.677246 318.565002 384.677246 C 371.561646 384.677246 424.55838 384.717896 477.554718 384.587952 C 481.179749 384.579041 482.934418 386.018341 485.154022 388.67572 C 491.266479 395.993713 491.387085 402.410797 485.254303 409.981201 C 482.516663 413.360565 480.359497 414.843903 476.079437 414.832458 C 423.749786 414.692596 371.419647 414.741516 319.08963 414.741516 C 317.119141 414.741516 315.148651 414.741516 312.832764 414.741516 C 312.696014 416.531647 312.493134 417.960846 312.491669 419.390198 C 312.470917 439.72226 312.465332 460.054291 312.484741 480.386353 C 312.490601 486.489685 312.917267 486.91745 319.006104 486.921722 C 343.504059 486.939026 368.002045 486.928955 393 486.928955 z" stroke-linecap="round" />
</g>
</svg>