<?xml version="1.0" encoding="utf-8"?>
<!-- Generator: Adobe Illustrator 22.1.0, SVG Export Plug-In . SVG Version: 6.00 Build 0)  -->
<svg version="1.1" id="Layer_1" xmlns="http://www.w3.org/2000/svg" xmlns:xlink="http://www.w3.org/1999/xlink" x="0px" y="0px"
	 viewBox="0 0 62 62" style="enable-background:new 0 0 62 62;" xml:space="preserve">
<style type="text/css">
	.st0{fill:#86DA2F;stroke:#4C4C4C;stroke-width:0.25;stroke-miterlimit:10;}
	.st1{fill:#24C2FF;stroke:#4C4C4C;stroke-width:0.25;stroke-miterlimit:10;}
	.st2{fill:#FFCB12;stroke:#4C4C4C;stroke-width:0.25;stroke-miterlimit:10;}
	.st3{fill:#0069DA;stroke:#4C4C4C;stroke-width:0.25;stroke-miterlimit:10;}
	.st4{fill:#FF4649;stroke:#4C4C4C;stroke-width:0.25;stroke-miterlimit:10;}
</style>
<path id="path22" class="st0" d="M56.4,34.9c2.6-0.2,4.6,1.5,4.8,4c0.2,2.7-1.7,4.8-4.2,5c-2.5,0.2-4.6-1.7-4.8-4.1
	C52,37.1,53.8,35.2,56.4,34.9z"/>
<path id="path24" class="st1" d="M24.8,55.4c0-2.6,2-4.5,4.3-4.5s4.6,2.2,4.6,4.6c0,2.4-2,4.4-4.2,4.5
	C26.6,60.1,24.8,58.3,24.8,55.4z"/>
<path id="path26" class="st2" d="M32.1,27.4c-0.4,0.2-0.6-0.1-0.7-0.4c-3.6-6.8-2.6-15.4,3.8-20.5c1.7-1.4,4.8-1.7,6.2-0.3
	c0.6,0.5,0.7,1.1,0.8,1.8c0.2,1.5,0.5,3,1.5,4.1c1.1,1.3,2.5,1.8,4,1.7c1.4,0,2.8-0.2,3.6,1.4c0.5,0.9,0.3,4.3-0.5,5
	c-0.4,0.3-0.7,0.1-1,0c-2.3-0.9-4.6-0.9-7-0.5c-0.8,0.1-1.2-0.1-1.2-1c-0.1-1.5-0.4-2.9-1.2-4.1c-1.5-2.7-4.2-2.8-6-0.3
	c-1.5,2-1.9,4.3-2.3,6.7C31.9,23.1,32,25.3,32.1,27.4C32.1,27.4,32,27.4,32.1,27.4z"/>
<path id="path28" class="st0" d="M34.6,28.9c-0.2-0.3-0.1-0.6,0.2-0.8c5.6-5.1,14-6.1,20.5-1.1c1.7,1.4,2.8,4.2,1.9,5.9
	c-0.4,0.7-0.9,1-1.5,1.2c-1.4,0.6-2.7,1.2-3.5,2.5c-0.9,1.3-1.1,2.8-0.7,4.3c0.3,1.3,0.8,2.7-0.5,3.8c-0.7,0.7-4,1.3-4.9,0.7
	c-0.4-0.3-0.3-0.6-0.2-1c0.3-2.5-0.3-4.7-1.2-6.9c-0.3-0.8-0.2-1.2,0.6-1.4c1.4-0.4,2.7-1.1,3.6-2.1c2.2-2.1,1.7-4.7-1.2-5.9
	c-2.3-1-4.6-0.8-6.9-0.6C38.6,27.7,36.6,28.3,34.6,28.9z"/>
<path id="path30" class="st1" d="M33.3,31.5c0.3-0.3,0.5-0.2,0.8,0c6.5,3.9,9.8,11.7,6.9,19.3c-0.8,2-3.3,3.9-5.2,3.4
	c-0.8-0.2-1.2-0.6-1.6-1.1c-0.9-1.2-1.9-2.3-3.3-2.8c-1.6-0.5-3-0.2-4.3,0.6c-1.2,0.7-2.4,1.6-3.8,0.7c-0.9-0.5-2.4-3.5-2.1-4.5
	c0.2-0.4,0.6-0.4,1-0.4c2.5-0.4,4.4-1.6,6.3-3.2c0.6-0.5,1.1-0.5,1.6,0.2c0.8,1.2,1.8,2.2,3.1,2.9c2.6,1.5,5,0.2,5.3-2.8
	c0.3-2.5-0.6-4.6-1.4-6.8C35.6,35.1,34.5,33.2,33.3,31.5z"/>
<path id="path32" class="st3" d="M30.2,32.1c-0.4,2-1.3,3.8-2.5,5.5c-3.5,5.3-8.7,7.5-15,6.9c-2.3-0.2-4.1-2.1-4.3-3.9
	c-0.1-0.8,0.1-1.4,0.6-2c0.7-0.9,1.3-1.7,1.6-2.8c0.6-2.2-0.2-3.9-1.8-5.5c-2.2-2.2-1.9-4.1,0.7-5.7c0.3-0.2,0.7-0.4,1.1-0.6
	c0.6-0.3,1.1-0.3,1.3,0.4c0.9,2.3,2.7,3.9,4.6,5.3c0.7,0.6,0.7,1,0.1,1.7c-1.2,1.3-1.9,2.9-2,4.6c-0.2,2.2,1.1,3.5,3.2,3.5
	c1.4,0,2.7-0.5,3.8-1.1c3.1-1.6,5.4-3.8,7.7-6.2C29.7,32.2,29.8,32,30.2,32.1z"/>
<path id="path34" class="st4" d="M14,11.4c0.2,0,0.7,0.1,1.2,0.2c3.6,0.7,5.9-0.6,7.1-4c0.8-2.3,2.5-3,4.6-1.8
	c0.1,0,0.1,0.1,0.2,0.1c2.3,1.3,2.3,1.5,0.9,3.4c-1.2,1.6-1.8,3.3-2.1,5.2c-0.2,1.1-0.6,1.3-1.6,0.9c-1.6-0.6-3.2-0.6-4.9,0
	c-1.9,0.6-2.7,2.3-2.1,4.1c0.8,2.5,3,3.5,4.8,4.8c1.9,1.3,4,2,6.1,2.9c0.3,0.1,0.8,0.1,0.7,0.6c-0.1,0.3-0.5,0.3-0.9,0.3
	c-4.4,0.2-8.7-0.5-12.1-3.4c-3.2-2.7-5.6-5.9-5.2-10.4C11.1,12.8,12.1,11.7,14,11.4z"/>
<path id="path36" class="st3" d="M5.7,39.1C3.3,39.4,1,37.4,0.8,35c-0.2-2.4,1.8-4.7,4-4.9c2.6-0.3,4.9,1.5,5.1,3.8
	C10,36.1,8.5,38.9,5.7,39.1z"/>
<path id="path38" class="st2" d="M47.3,4c2.5-0.2,4.8,1.8,5,4.2c0.2,2.4-1.8,4.6-4.1,4.8c-2.6,0.2-4.8-1.7-5-4.1S44.7,4.2,47.3,4z"
	/>
<path id="path40" class="st4" d="M21.6,5.9c0.3,2.6-1.5,4.7-4.1,5.1c-2.3,0.3-4.6-1.6-4.9-3.7c-0.3-2.9,1.3-4.9,3.9-5.2
	C18.9,1.7,21.3,3.6,21.6,5.9z"/>
</svg>
