<?xml version="1.0" encoding="UTF-8" standalone="no" ?>
<!DOCTYPE svg PUBLIC "-//W3C//DTD SVG 1.1//EN" "https://www.w3.org/Graphics/SVG/1.1/DTD/svg11.dtd">
<svg xmlns="http://www.w3.org/2000/svg" version="1.1" width="800" height="333" viewBox="0 0 800 333" xml:space="preserve">
<desc>Created with Fabric.js 3.6.6</desc>
<defs>
</defs>
<g transform="matrix(0.99 0 0 0.99 697.74 120.39)" id="Layer_1"  >
<path style="stroke: none; stroke-width: 1; stroke-dasharray: none; stroke-linecap: butt; stroke-dashoffset: 0; stroke-linejoin: miter; stroke-miterlimit: 4; fill: rgb(48,44,44); fill-rule: nonzero; opacity: 1;"  transform=" translate(-986.15, -398.67)" d="M 978.800903 445.149292 C 981.069153 452.843445 983.219055 460.151001 985.369019 467.458588 C 985.693665 467.537262 986.018311 467.615936 986.342957 467.694611 C 986.876465 466.118134 987.461609 464.557007 987.935974 462.962952 C 1003.953613 409.141724 1019.95459 355.315521 1035.972778 301.494476 C 1041.376343 283.338043 1055.135132 275.023773 1071.947998 279.596069 C 1081.679199 282.242493 1087.129272 288.706635 1088.988403 298.375916 C 1089.488037 300.973907 1089.63855 303.674286 1089.639771 306.327789 C 1089.673584 375.310242 1089.667725 444.292694 1089.658081 513.275146 C 1089.657837 514.740845 1089.531738 516.206604 1089.452759 517.923706 C 1078.629517 517.923706 1068.057007 517.923706 1057.173096 517.923706 C 1057.173096 460.892517 1057.173096 403.959686 1057.173096 347.026855 C 1056.884888 346.964508 1056.596802 346.902161 1056.308594 346.839844 C 1054.615479 352.340332 1052.869385 357.825195 1051.237427 363.343781 C 1038.75354 405.561432 1026.426758 447.826447 1013.685486 489.966156 C 1011.650269 496.697418 1008.719055 503.562622 1004.583557 509.172791 C 994.930664 522.267883 977.257324 522.210815 967.53302 509.185028 C 963.75116 504.119171 960.958069 497.950806 959.113403 491.860962 C 944.904907 444.952728 931.040894 397.940094 917.062744 350.962036 C 916.739868 349.876831 916.330566 348.817383 915.319458 347.802979 C 915.319458 404.557617 915.319458 461.312256 915.319458 518.405273 C 904.300171 518.405273 893.741577 518.405273 882.625244 518.405273 C 882.625244 516.551819 882.625244 514.760132 882.625244 512.968506 C 882.625854 445.152435 882.615845 377.336365 882.655151 309.520325 C 882.65741 305.700195 882.65387 301.801788 883.364136 298.075378 C 885.346375 287.676453 892.524658 280.79303 902.636597 279.036957 C 915.359558 276.827454 926.649536 280.965057 931.742249 291.419312 C 935.776978 299.701691 938.242188 308.802795 940.905579 317.689819 C 953.59137 360.01947 966.106628 402.400208 978.800903 445.149292 z" stroke-linecap="round" />
</g>
<g transform="matrix(0.99 0 0 0.99 104.59 121.36)" id="Layer_1"  >
<path style="stroke: none; stroke-width: 1; stroke-dasharray: none; stroke-linecap: butt; stroke-dashoffset: 0; stroke-linejoin: miter; stroke-miterlimit: 4; fill: rgb(191,27,45); fill-rule: nonzero; opacity: 1;"  transform=" translate(-384.86, -399.64)" d="M 393 486.928955 C 407.630646 486.928955 421.761322 486.928955 436.891754 486.928955 C 434.302399 491.220215 432.153534 494.855255 429.932068 498.445343 C 426.782959 503.534546 423.297424 508.440521 420.499054 513.713196 C 418.600128 517.291199 416.30368 518.440186 412.288269 518.418335 C 380.624542 518.245972 348.959381 518.36853 317.29483 518.30542 C 298.173615 518.267334 284.181274 507.345459 280.499664 489.657135 C 279.996155 487.23819 279.952606 484.692078 279.951294 482.204681 C 279.92218 427.20816 279.911743 372.21167 279.938019 317.215149 C 279.947754 296.823822 294.825256 281.225372 315.209503 281.037109 C 348.371155 280.730774 381.537628 280.910248 414.70163 281.020386 C 416.20694 281.025391 418.33609 281.953857 419.111084 283.14447 C 425.172821 292.457062 430.974243 301.939056 437.273071 312.037415 C 434.932251 312.15332 433.221252 312.31131 431.510162 312.311951 C 394.679169 312.326141 357.848145 312.320831 321.017151 312.324219 C 312.478424 312.324982 312.477722 312.333282 312.477509 320.90921 C 312.477051 340.074677 312.477325 359.240112 312.477325 378.405579 C 312.477325 380.215576 312.477325 382.025574 312.477325 384.677246 C 314.755188 384.677246 316.660095 384.677246 318.565002 384.677246 C 371.561646 384.677246 424.55838 384.717896 477.554718 384.587952 C 481.179749 384.579041 482.934418 386.018341 485.154022 388.67572 C 491.266479 395.993713 491.387085 402.410797 485.254303 409.981201 C 482.516663 413.360565 480.359497 414.843903 476.079437 414.832458 C 423.749786 414.692596 371.419647 414.741516 319.08963 414.741516 C 317.119141 414.741516 315.148651 414.741516 312.832764 414.741516 C 312.696014 416.531647 312.493134 417.960846 312.491669 419.390198 C 312.470917 439.72226 312.465332 460.054291 312.484741 480.386353 C 312.490601 486.489685 312.917267 486.91745 319.006104 486.921722 C 343.504059 486.939026 368.002045 486.928955 393 486.928955 z" stroke-linecap="round" />
</g>
<g transform="matrix(0.99 0 0 0.99 437.08 119.28)" id="Layer_1"  >
<path style="stroke: none; stroke-width: 1; stroke-dasharray: none; stroke-linecap: butt; stroke-dashoffset: 0; stroke-linejoin: miter; stroke-miterlimit: 4; fill: rgb(48,44,44); fill-rule: nonzero; opacity: 1;"  transform=" translate(-721.91, -397.54)" d="M 644.995728 441 C 644.995667 398.50943 644.988647 356.51889 644.998352 314.52832 C 645.003357 292.714447 658.469055 278.056732 680.209595 277.406586 C 696.844849 276.909119 713.543396 277.07254 730.166016 277.900848 C 771.221619 279.946503 802.129883 312.393005 798.540588 360.12323 C 796.185852 391.435516 772.497009 425.319244 726.442383 428.861328 C 711.524231 430.008667 696.478638 429.499481 681.491272 429.743744 C 680.373596 429.761963 679.255371 429.746124 677.790771 429.746124 C 677.790771 459.339447 677.790771 488.443237 677.790771 517.955627 C 666.737976 517.955627 656.028076 517.955627 644.995789 517.955627 C 644.995789 492.447815 644.995789 466.973907 644.995728 441 M 677.667786 379.499634 C 677.667786 385.588287 677.667786 391.676971 677.667786 397.831818 C 693.907471 397.831818 709.577454 398.580658 725.142639 397.624176 C 741.156189 396.640106 754.186462 389.500061 761.4151 374.238007 C 765.149597 366.353363 765.588379 357.90506 765.181274 349.345856 C 763.974731 323.981628 748.712219 309.126099 723.409485 308.899231 C 710.255005 308.781281 697.096497 309.016418 683.944397 308.80426 C 679.2901 308.729218 677.51593 310.125183 677.570068 315.053284 C 677.802185 336.19986 677.668213 357.350494 677.667786 379.499634 z" stroke-linecap="round" />
</g>
<g transform="matrix(0.99 0 0 0.99 260.02 120.97)" id="Layer_1"  >
<path style="stroke: none; stroke-width: 1; stroke-dasharray: none; stroke-linecap: butt; stroke-dashoffset: 0; stroke-linejoin: miter; stroke-miterlimit: 4; fill: rgb(48,44,44); fill-rule: nonzero; opacity: 1;"  transform=" translate(-542.42, -399.26)" d="M 483.526733 333.499817 C 472.533813 315.855713 461.761047 298.502869 450.471344 280.317383 C 458.945496 280.317383 466.742432 281.055481 474.33609 280.128387 C 483.587524 278.998901 488.462128 282.703857 493.105927 290.490692 C 509.030548 317.19339 525.80658 343.388306 542.576599 370.287842 C 543.734009 368.536652 544.721802 367.117889 545.633362 365.651794 C 562.492798 338.536377 579.379272 311.4375 596.14209 284.262421 C 597.893127 281.423706 599.732849 280.127838 603.23761 280.221649 C 613.35675 280.492493 623.487854 280.317383 634.367004 280.317383 C 633.369446 282.185333 632.710938 283.608368 631.888977 284.92981 C 608.963745 321.788269 586.065369 358.663696 563.00238 395.435883 C 561.113892 398.44696 561.270874 400.481659 563.072876 403.361542 C 585.83313 439.735657 608.473022 476.185089 631.140259 512.61731 C 632.095764 514.153076 633.018799 515.708984 634.266602 517.765991 C 632.691895 517.934937 631.503296 518.166199 630.313477 518.172852 C 623.816162 518.209167 617.228821 517.509827 610.842163 518.351501 C 601.531433 519.578552 596.455933 515.967529 591.711365 507.917847 C 576.683594 482.421478 560.663818 457.509705 545.018494 432.377594 C 544.325439 431.264282 543.542664 430.206787 542.568909 428.782837 C 531.581177 446.383179 520.777161 463.686035 509.976593 480.990936 C 502.931183 492.279205 495.824188 503.53006 488.901733 514.89325 C 487.44101 517.291016 485.888275 518.315918 482.990997 518.264038 C 472.504486 518.076355 462.012543 518.190186 450.60849 518.190186 C 451.841858 516.188965 452.742401 514.716187 453.654022 513.250366 C 476.490326 476.529419 499.292236 439.786896 522.235229 403.132721 C 523.990906 400.32785 524.041138 398.459686 522.250244 395.621429 C 509.293945 375.088165 496.554749 354.417938 483.526733 333.499817 z" stroke-linecap="round" />
</g>
<g transform="matrix(0.99 0 0 0.99 550.43 121.06)" id="Layer_1"  >
<path style="stroke: none; stroke-width: 1; stroke-dasharray: none; stroke-linecap: butt; stroke-dashoffset: 0; stroke-linejoin: miter; stroke-miterlimit: 4; fill: rgb(49,45,45); fill-rule: nonzero; opacity: 1;"  transform=" translate(-836.81, -399.33)" d="M 853.006165 434 C 853.006165 462.305634 853.006165 490.111267 853.006165 518.136597 C 842.102722 518.136597 831.505371 518.136597 820.618042 518.136597 C 820.618042 438.874298 820.618042 359.84375 820.618042 280.532593 C 831.388367 280.532593 841.950928 280.532593 853.006165 280.532593 C 853.006165 331.637268 853.006165 382.568634 853.006165 434 z" stroke-linecap="round" />
</g>
</svg>