<?xml version="1.0" encoding="UTF-8" standalone="no" ?>
<!DOCTYPE svg PUBLIC "-//W3C//DTD SVG 1.1//EN" "https://www.w3.org/Graphics/SVG/1.1/DTD/svg11.dtd">
<svg xmlns="http://www.w3.org/2000/svg" version="1.1" width="800" height="333" viewBox="0 0 800 333" xml:space="preserve">
<desc>Created with Fabric.js 3.6.6</desc>
<defs>
</defs>
<g transform="matrix(0.99 0 0 0.99 697.74 120.39)" id="Layer_1"  >
<path style="stroke: none; stroke-width: 1; stroke-dasharray: none; stroke-linecap: butt; stroke-dashoffset: 0; stroke-linejoin: miter; stroke-miterlimit: 4; fill: rgb(48,44,44); fill-rule: nonzero; opacity: 1;"  transform=" translate(-986.15, -398.67)" d="M 978.800903 445.149292 C 981.069153 452.843445 983.219055 460.151001 985.369019 467.458588 C 985.693665 467.537262 986.018311 467.615936 986.342957 467.694611 C 986.876465 466.118134 987.461609 464.557007 987.935974 462.962952 C 1003.953613 409.141724 1019.95459 355.315521 1035.972778 301.494476 C 1041.376343 283.338043 1055.135132 275.023773 1071.947998 279.596069 C 1081.679199 282.242493 1087.129272 288.706635 1088.988403 298.375916 C 1089.488037 300.973907 1089.63855 303.674286 1089.639771 306.327789 C 1089.673584 375.310242 1089.667725 444.292694 1089.658081 513.275146 C 1089.657837 514.740845 1089.531738 516.206604 1089.452759 517.923706 C 1078.629517 517.923706 1068.057007 517.923706 1057.173096 517.923706 C 1057.173096 460.892517 1057.173096 403.959686 1057.173096 347.026855 C 1056.884888 346.964508 1056.596802 346.902161 1056.308594 346.839844 C 1054.615479 352.340332 1052.869385 357.825195 1051.237427 363.343781 C 1038.75354 405.561432 1026.426758 447.826447 1013.685486 489.966156 C 1011.650269 496.697418 1008.719055 503.562622 1004.583557 509.172791 C 994.930664 522.267883 977.257324 522.210815 967.53302 509.185028 C 963.75116 504.119171 960.958069 497.950806 959.113403 491.860962 C 944.904907 444.952728 931.040894 397.940094 917.062744 350.962036 C 916.739868 349.876831 916.330566 348.817383 915.319458 347.802979 C 915.319458 404.557617 915.319458 461.312256 915.319458 518.405273 C 904.300171 518.405273 893.741577 518.405273 882.625244 518.405273 C 882.625244 516.551819 882.625244 514.760132 882.625244 512.968506 C 882.625854 445.152435 882.615845 377.336365 882.655151 309.520325 C 882.65741 305.700195 882.65387 301.801788 883.364136 298.075378 C 885.346375 287.676453 892.524658 280.79303 902.636597 279.036957 C 915.359558 276.827454 926.649536 280.965057 931.742249 291.419312 C 935.776978 299.701691 938.242188 308.802795 940.905579 317.689819 C 953.59137 360.01947 966.106628 402.400208 978.800903 445.149292 z" stroke-linecap="round" />
</g>
<g transform="matrix(0.99 0 0 0.99 104.59 121.36)" id="Layer_1"  >
<path style="stroke: none; stroke-width: 1; stroke-dasharray: none; stroke-linecap: butt; stroke-dashoffset: 0; stroke-linejoin: miter; stroke-miterlimit: 4; fill: rgb(191,27,45); fill-rule: nonzero; opacity: 1;"  transform=" translate(-384.86, -399.64)" d="M 393 486.928955 C 407.630646 486.928955 421.761322 486.928955 436.891754 486.928955 C 434.302399 491.220215 432.153534 494.855255 429.932068 498.445343 C 426.782959 503.534546 423.297424 508.440521 420.499054 513.713196 C 418.600128 517.291199 416.30368 518.440186 412.288269 518.418335 C 380.624542 518.245972 348.959381 518.36853 317.29483 518.30542 C 298.173615 518.267334 284.181274 507.345459 280.499664 489.657135 C 279.996155 487.23819 279.952606 484.692078 279.951294 482.204681 C 279.92218 427.20816 279.911743 372.21167 279.938019 317.215149 C 279.947754 296.823822 294.825256 281.225372 315.209503 281.037109 C 348.371155 280.730774 381.537628 280.910248 414.70163 281.020386 C 416.20694 281.025391 418.33609 281.953857 419.111084 283.14447 C 425.172821 292.457062 430.974243 301.939056 437.273071 312.037415 C 434.932251 312.15332 433.221252 312.31131 431.510162 312.311951 C 394.679169 312.326141 357.848145 312.320831 321.017151 312.324219 C 312.478424 312.324982 312.477722 312.333282 312.477509 320.90921 C 312.477051 340.074677 312.477325 359.240112 312.477325 378.405579 C 312.477325 380.215576 312.477325 382.025574 312.477325 384.677246 C 314.755188 384.677246 316.660095 384.677246 318.565002 384.677246 C 371.561646 384.677246 424.55838 384.717896 477.554718 384.587952 C 481.179749 384.579041 482.934418 386.018341 485.154022 388.67572 C 491.266479 395.993713 491.387085 402.410797 485.254303 409.981201 C 482.516663 413.360565 480.359497 414.843903 476.079437 414.832458 C 423.749786 414.692596 371.419647 414.741516 319.08963 414.741516 C 317.119141 414.741516 315.148651 414.741516 312.832764 414.741516 C 312.696014 416.531647 312.493134 417.960846 312.491669 419.390198 C 312.470917 439.72226 312.465332 460.054291 312.484741 480.386353 C 312.490601 486.489685 312.917267 486.91745 319.006104 486.921722 C 343.504059 486.939026 368.002045 486.928955 393 486.928955 z" stroke-linecap="round" />
</g>
<g transform="matrix(0.99 0 0 0.99 437.08 119.28)" id="Layer_1"  >
<path style="stroke: none; stroke-width: 1; stroke-dasharray: none; stroke-linecap: butt; stroke-dashoffset: 0; stroke-linejoin: miter; stroke-miterlimit: 4; fill: rgb(48,44,44); fill-rule: nonzero; opacity: 1;"  transform=" translate(-721.91, -397.54)" d="M 644.995728 441 C 644.995667 398.50943 644.988647 356.51889 644.998352 314.52832 C 645.003357 292.714447 658.469055 278.056732 680.209595 277.406586 C 696.844849 276.909119 713.543396 277.07254 730.166016 277.900848 C 771.221619 279.946503 802.129883 312.393005 798.540588 360.12323 C 796.185852 391.435516 772.497009 425.319244 726.442383 428.861328 C 711.524231 430.008667 696.478638 429.499481 681.491272 429.743744 C 680.373596 429.761963 679.255371 429.746124 677.790771 429.746124 C 677.790771 459.339447 677.790771 488.443237 677.790771 517.955627 C 666.737976 517.955627 656.028076 517.955627 644.995789 517.955627 C 644.995789 492.447815 644.995789 466.973907 644.995728 441 M 677.667786 379.499634 C 677.667786 385.588287 677.667786 391.676971 677.667786 397.831818 C 693.907471 397.831818 709.577454 398.580658 725.142639 397.624176 C 741.156189 396.640106 754.186462 389.500061 761.4151 374.238007 C 765.149597 366.353363 765.588379 357.90506 765.181274 349.345856 C 763.974731 323.981628 748.712219 309.126099 723.409485 308.899231 C 710.255005 308.781281 697.096497 309.016418 683.944397 308.80426 C 679.2901 308.729218 677.51593 310.125183 677.570068 315.053284 C 677.802185 336.19986 677.668213 357.350494 677.667786 379.499634 z" stroke-linecap="round" />
</g>
<g transform="matrix(0.99 0 0 0.99 260.02 120.97)" id="Layer_1"  >
<path style="stroke: none; stroke-width: 1; stroke-dasharray: none; stroke-linecap: butt; stroke-dashoffset: 0; stroke-linejoin: miter; stroke-miterlimit: 4; fill: rgb(48,44,44); fill-rule: nonzero; opacity: 1;"  transform=" translate(-542.42, -399.26)" d="M 483.526733 333.499817 C 472.533813 315.855713 461.761047 298.502869 450.471344 280.317383 C 458.945496 280.317383 466.742432 281.055481 474.33609 280.128387 C 483.587524 278.998901 488.462128 282.703857 493.105927 290.490692 C 509.030548 317.19339 525.80658 343.388306 542.576599 370.287842 C 543.734009 368.536652 544.721802 367.117889 545.633362 365.651794 C 562.492798 338.536377 579.379272 311.4375 596.14209 284.262421 C 597.893127 281.423706 599.732849 280.127838 603.23761 280.221649 C 613.35675 280.492493 623.487854 280.317383 634.367004 280.317383 C 633.369446 282.185333 632.710938 283.608368 631.888977 284.92981 C 608.963745 321.788269 586.065369 358.663696 563.00238 395.435883 C 561.113892 398.44696 561.270874 400.481659 563.072876 403.361542 C 585.83313 439.735657 608.473022 476.185089 631.140259 512.61731 C 632.095764 514.153076 633.018799 515.708984 634.266602 517.765991 C 632.691895 517.934937 631.503296 518.166199 630.313477 518.172852 C 623.816162 518.209167 617.228821 517.509827 610.842163 518.351501 C 601.531433 519.578552 596.455933 515.967529 591.711365 507.917847 C 576.683594 482.421478 560.663818 457.509705 545.018494 432.377594 C 544.325439 431.264282 543.542664 430.206787 542.568909 428.782837 C 531.581177 446.383179 520.777161 463.686035 509.976593 480.990936 C 502.931183 492.279205 495.824188 503.53006 488.901733 514.89325 C 487.44101 517.291016 485.888275 518.315918 482.990997 518.264038 C 472.504486 518.076355 462.012543 518.190186 450.60849 518.190186 C 451.841858 516.188965 452.742401 514.716187 453.654022 513.250366 C 476.490326 476.529419 499.292236 439.786896 522.235229 403.132721 C 523.990906 400.32785 524.041138 398.459686 522.250244 395.621429 C 509.293945 375.088165 496.554749 354.417938 483.526733 333.499817 z" stroke-linecap="round" />
</g>
<g transform="matrix(0.99 0 0 0.99 550.43 121.06)" id="Layer_1"  >
<path style="stroke: none; stroke-width: 1; stroke-dasharray: none; stroke-linecap: butt; stroke-dashoffset: 0; stroke-linejoin: miter; stroke-miterlimit: 4; fill: rgb(49,45,45); fill-rule: nonzero; opacity: 1;"  transform=" translate(-836.81, -399.33)" d="M 853.006165 434 C 853.006165 462.305634 853.006165 490.111267 853.006165 518.136597 C 842.102722 518.136597 831.505371 518.136597 820.618042 518.136597 C 820.618042 438.874298 820.618042 359.84375 820.618042 280.532593 C 831.388367 280.532593 841.950928 280.532593 853.006165 280.532593 C 853.006165 331.637268 853.006165 382.568634 853.006165 434 z" stroke-linecap="round" />
</g>
<g transform="matrix(0.99 0 0 0.99 322.43 307.3)" id="Layer_1"  >
<path style="stroke: none; stroke-width: 1; stroke-dasharray: none; stroke-linecap: butt; stroke-dashoffset: 0; stroke-linejoin: miter; stroke-miterlimit: 4; fill: rgb(53,49,49); fill-rule: nonzero; opacity: 1;"  transform=" translate(-605.68, -588.15)" d="M 596.032043 606.210327 C 598.42218 606.609558 600.381653 606.976624 602.356689 607.213074 C 610.904175 608.236511 614.113953 605.219971 613.994446 596.509827 C 610.714905 597.447205 607.434265 599.016724 604.071899 599.217041 C 596.595459 599.662598 591.800781 595.727844 590.104736 588.427124 C 589.581848 586.176208 589.262756 583.819824 589.274048 581.513855 C 589.306458 574.891479 589.796387 568.008362 596.361511 564.484131 C 602.914612 560.96637 609.561829 562.135071 614.243042 566.078247 C 617.070496 564.814148 619.190063 563.866516 621.892334 562.658325 C 621.892334 576.544373 622.468628 589.167053 621.674744 601.702881 C 621.203735 609.139404 614.479675 614.147461 606.950378 613.893982 C 601.946838 613.725586 596.982422 612.396301 592.000549 611.58667 C 591.753662 610.870972 591.506836 610.155273 591.26001 609.439575 C 592.709534 608.332397 594.158997 607.225281 596.032043 606.210327 M 599.289917 590.969299 C 604.15979 595.208435 611.228455 594.491821 612.650269 588.813843 C 613.91156 583.777161 613.548401 578.033264 612.592957 572.842651 C 611.904053 569.099854 607.813416 568.055969 604.073181 568.36145 C 600.379578 568.663269 598.141602 571.098145 598.081482 574.560974 C 597.990601 579.786865 598.614685 585.025085 599.289917 590.969299 z" stroke-linecap="round" />
</g>
<g transform="matrix(0.99 0 0 0.99 501.44 293.55)" id="Layer_1"  >
<path style="stroke: none; stroke-width: 1; stroke-dasharray: none; stroke-linecap: butt; stroke-dashoffset: 0; stroke-linejoin: miter; stroke-miterlimit: 4; fill: rgb(56,52,52); fill-rule: nonzero; opacity: 1;"  transform=" translate(-787.15, -574.21)" d="M 784.215271 599.403564 C 775.849304 598.284729 772.044067 594.565979 770.938843 586.631775 C 770.641663 584.498657 770.544312 582.325928 770.51416 580.16925 C 770.310913 565.621704 780.992249 557.881775 795.403198 566.198608 C 795.403198 560.369141 795.403198 554.830627 795.403198 549.015198 C 798.356079 549.015198 800.756409 549.015198 803.729431 549.015198 C 803.729431 557.6828 803.727173 566.11377 803.730286 574.5448 C 803.732605 580.868591 803.902954 587.199036 803.643799 593.511963 C 803.571838 595.263367 802.234436 596.962708 801.477539 598.685974 C 799.692627 597.869324 797.907715 597.052734 796.364685 596.346741 C 792.721191 597.302063 788.668518 598.364685 784.215271 599.403564 M 778.747559 579.645874 C 778.831848 581.960327 778.785706 584.288696 779.029846 586.586182 C 779.431824 590.368896 781.040894 593.366333 785.276794 593.709106 C 789.443298 594.046265 793.440918 592.655457 794.176941 588.347534 C 794.985046 583.618042 794.907593 578.520996 794.004517 573.816711 C 793.617249 571.799683 790.416077 569.516724 788.066101 568.841125 C 782.169006 567.145691 779.491028 570.260315 778.747559 579.645874 z" stroke-linecap="round" />
</g>
<g transform="matrix(0.99 0 0 0.99 233.46 293.66)" id="Layer_1"  >
<path style="stroke: none; stroke-width: 1; stroke-dasharray: none; stroke-linecap: butt; stroke-dashoffset: 0; stroke-linejoin: miter; stroke-miterlimit: 4; fill: rgb(51,47,47); fill-rule: nonzero; opacity: 1;"  transform=" translate(-515.5, -574.3)" d="M 499.078491 579.203003 C 500.574127 566.703735 505.540466 561.807251 515.669617 562.981262 C 518.440979 563.30249 521.06311 564.910828 523.958252 566.005798 C 523.958252 560.71936 523.958252 555.141479 523.958252 549.154053 C 526.78656 549.154053 529.308289 549.154053 531.91626 549.154053 C 531.91626 565.531555 531.91626 581.767517 531.91626 599.3797 C 529.115051 598.267944 526.993835 597.426147 524.872559 596.58429 C 525.035278 596.24353 525.197998 595.902771 525.360718 595.562012 C 522.680542 596.728088 520.10321 598.400269 517.301819 598.969421 C 507.227966 601.016174 501.084808 596.507996 499.392365 586.111633 C 499.048126 583.99707 499.16272 581.8078 499.078491 579.203003 M 524.040405 580.570801 C 523.721069 578.451843 523.631042 576.265808 523.034912 574.227844 C 521.774475 569.918762 518.429688 568.290039 514.244812 568.434082 C 509.982452 568.580627 508.003418 571.457336 507.779449 575.304993 C 507.531372 579.567139 507.383881 583.933411 508.034485 588.123657 C 508.782257 592.940002 512.617065 594.786743 517.386597 593.408752 C 522.088257 592.050232 523.718994 589.133301 524.040405 580.570801 z" stroke-linecap="round" />
</g>
<g transform="matrix(0.99 0 0 0.99 591.36 300.11)" id="Layer_1"  >
<path style="stroke: none; stroke-width: 1; stroke-dasharray: none; stroke-linecap: butt; stroke-dashoffset: 0; stroke-linejoin: miter; stroke-miterlimit: 4; fill: rgb(53,49,49); fill-rule: nonzero; opacity: 1;"  transform=" translate(-878.3, -580.86)" d="M 889.039368 565.866699 C 895.146729 572.468811 896.503906 586.034058 891.799805 593.160645 C 887.465515 599.72699 880.7323 599.911438 873.935181 598.986572 C 868.117432 598.195007 864.225769 594.76239 862.912598 588.944092 C 862.296631 586.215149 861.974792 583.357117 861.986816 580.55957 C 862.055298 564.584167 874.82312 557.505066 889.039368 565.866699 M 885.719055 587.615906 C 885.835083 583.975647 886.241028 580.315491 885.992554 576.700317 C 885.692383 572.333496 883.716187 569.06311 878.694702 568.862671 C 873.972046 568.674194 871.131042 570.924561 870.398743 576.228027 C 869.950623 579.47345 870.034119 582.880188 870.469177 586.13562 C 870.927063 589.561035 872.540161 592.513367 876.540039 593.053528 C 880.575378 593.598511 883.796021 592.542114 885.719055 587.615906 z" stroke-linecap="round" />
</g>
<g transform="matrix(0.99 0 0 0.99 161.62 300.03)" id="Layer_1"  >
<path style="stroke: none; stroke-width: 1; stroke-dasharray: none; stroke-linecap: butt; stroke-dashoffset: 0; stroke-linejoin: miter; stroke-miterlimit: 4; fill: rgb(53,49,49); fill-rule: nonzero; opacity: 1;"  transform=" translate(-442.65, -580.76)" d="M 457.222107 578.661011 C 457.246979 585.398743 457.246979 591.68988 457.246979 599.428284 C 454.34613 598.287598 452.250031 597.463318 449.431122 596.354797 C 446.94339 599.136841 442.374939 599.960266 437.368927 599.006409 C 431.625488 597.912109 428.065582 593.321899 428.062561 587.17041 C 428.059753 581.465576 430.805939 577.923279 436.783569 576.8172 C 440.669586 576.098206 444.687531 576.092224 448.643372 575.767029 C 447.740417 569.759766 444.972229 567.60553 439.342865 568.657837 C 437.880524 568.931274 436.419708 569.811768 435.026031 569.682373 C 433.67981 569.557556 432.421082 568.489563 431.123932 567.835815 C 431.833221 566.73468 432.282043 565.153503 433.291626 564.605713 C 445.121552 558.186096 456.206573 564.548157 457.222107 578.661011 M 448.46109 589.427673 C 448.746307 587.06134 449.031555 584.694946 449.379822 581.805542 C 444.473663 582.7229 438.869141 579.518738 436.795349 585.580566 C 436.139587 587.497375 438.026154 591.404419 439.926636 592.819641 C 442.985382 595.097351 446.176849 593.599915 448.46109 589.427673 z" stroke-linecap="round" />
</g>
<g transform="matrix(0.99 0 0 0.99 16.62 300.29)" id="Layer_1"  >
<path style="stroke: none; stroke-width: 1; stroke-dasharray: none; stroke-linecap: butt; stroke-dashoffset: 0; stroke-linejoin: miter; stroke-miterlimit: 4; fill: rgb(52,48,48); fill-rule: nonzero; opacity: 1;"  transform=" translate(-295.68, -581.04)" d="M 299.165161 562.891357 C 306.589813 563.957458 310.421722 568.254944 311.571411 575.024963 C 312.012787 577.623901 312.04892 580.318909 312.014557 582.966858 C 311.800842 599.445801 298.614929 601.239929 288.385345 598.114624 C 287.450104 597.828857 286.549866 597.326355 285.730835 596.778748 C 280.028839 592.96637 277.695251 582.132202 280.545441 572.87323 C 282.644775 566.053467 287.258667 562.852844 295.278503 562.696716 C 296.439209 562.674133 297.602844 562.801758 299.165161 562.891357 M 288.126221 575.241882 C 288.116455 579.053467 287.714417 582.916626 288.207611 586.661987 C 288.697235 590.380615 290.930054 592.976746 295.17984 593.169006 C 299.455627 593.362366 302.465057 591.600952 303.194092 587.389465 C 303.808594 583.839661 304.018494 580.110962 303.669861 576.533264 C 303.302948 572.768066 301.673462 569.461182 297.140259 568.906982 C 292.682526 568.362 289.78241 570.204956 288.126221 575.241882 z" stroke-linecap="round" />
</g>
<g transform="matrix(0.99 0 0 0.99 715.29 300.19)" id="Layer_1"  >
<path style="stroke: none; stroke-width: 1; stroke-dasharray: none; stroke-linecap: butt; stroke-dashoffset: 0; stroke-linejoin: miter; stroke-miterlimit: 4; fill: rgb(52,48,48); fill-rule: nonzero; opacity: 1;"  transform=" translate(-1003.93, -580.92)" d="M 992.392151 566.337341 C 998.417542 561.79834 1004.819702 561.698181 1011.166626 563.951111 C 1018.471619 566.544006 1021.587524 575.166748 1019.807617 586.25061 C 1018.492126 594.442505 1013.96283 598.667603 1005.8797 599.243103 C 994.121033 600.080261 988.398682 595.18689 987.683533 583.419373 C 987.316223 577.375793 987.577576 571.388184 992.392151 566.337341 M 1010.385376 589.683167 C 1010.71283 584.803833 1011.552429 579.889038 1011.217285 575.055664 C 1010.909546 570.618164 1007.635254 568.609497 1003.098816 568.862122 C 998.576721 569.114014 996.631409 572.033813 996.113708 575.945435 C 995.703186 579.047363 995.331299 582.424561 996.150024 585.340454 C 996.917725 588.074463 998.742249 591.299316 1001.061218 592.608459 C 1003.892578 594.206909 1007.59552 593.560913 1010.385376 589.683167 z" stroke-linecap="round" />
</g>
<g transform="matrix(0.99 0 0 0.99 53.33 300.73)" id="Layer_1"  >
<path style="stroke: none; stroke-width: 1; stroke-dasharray: none; stroke-linecap: butt; stroke-dashoffset: 0; stroke-linejoin: miter; stroke-miterlimit: 4; fill: rgb(58,54,54); fill-rule: nonzero; opacity: 1;"  transform=" translate(-332.89, -581.47)" d="M 318.073273 580.934692 C 318.071472 575.130737 318.071472 569.815002 318.071472 563.835205 C 320.738068 563.711304 323.234924 563.595276 326.233398 563.455933 C 326.233398 569.802063 326.174194 575.587708 326.262604 581.371155 C 326.297943 583.682739 326.568878 586.002197 326.893311 588.295288 C 327.34314 591.474731 329.149384 593.595581 332.453735 593.623718 C 336.158478 593.655334 338.486145 591.330261 338.854065 587.855103 C 339.360016 583.076416 339.265045 578.231506 339.366272 573.413635 C 339.428955 570.429199 339.377899 567.442322 339.377899 563.939392 C 342.141571 563.939392 344.634186 563.939392 347.711914 563.939392 C 347.711914 574.745178 347.766541 585.344116 347.616364 595.940186 C 347.603241 596.865967 346.070221 598.638916 345.542511 598.532532 C 343.659332 598.153137 341.905365 597.132324 339.659241 596.162964 C 336.213165 599.905884 331.149963 600.351685 325.790253 598.184265 C 320.145416 595.901733 318.114502 591.200928 318.070953 585.414917 C 318.060944 584.08429 318.07312 582.753601 318.073273 580.934692 z" stroke-linecap="round" />
</g>
<g transform="matrix(0.99 0 0 0.99 751.92 299.99)" id="Layer_1"  >
<path style="stroke: none; stroke-width: 1; stroke-dasharray: none; stroke-linecap: butt; stroke-dashoffset: 0; stroke-linejoin: miter; stroke-miterlimit: 4; fill: rgb(56,52,52); fill-rule: nonzero; opacity: 1;"  transform=" translate(-1041.07, -580.73)" d="M 1047.720825 587.933838 C 1047.67749 583.791565 1047.857544 580.115967 1047.529785 576.486206 C 1047.17981 572.609009 1046.483765 568.417297 1041.251953 568.53949 C 1036.375 568.65332 1034.927734 572.281189 1034.763428 576.440002 C 1034.540649 582.083618 1034.567383 587.737183 1034.496338 593.386597 C 1034.477783 594.857727 1034.493652 596.329285 1034.493652 597.671997 C 1027.291626 599.996399 1026.266235 599.292725 1026.263062 592.409241 C 1026.259277 584.43219 1026.153687 576.452576 1026.344238 568.480103 C 1026.383789 566.824219 1027.362427 563.926575 1028.198364 563.817139 C 1029.934326 563.589905 1031.864868 564.848145 1034.415894 565.740967 C 1037.731567 562.179565 1042.959351 561.674683 1048.42627 564.035156 C 1053.963013 566.425964 1055.933105 571.191162 1055.904785 576.976501 C 1055.880249 581.964233 1055.905029 586.952148 1055.906006 591.940002 C 1055.907471 599.413147 1055.904297 599.415161 1047.720703 598.133728 C 1047.720703 594.970093 1047.720703 591.695374 1047.720825 587.933838 z" stroke-linecap="round" />
</g>
<g transform="matrix(0.99 0 0 0.99 427.82 300.41)" id="Layer_1"  >
<path style="stroke: none; stroke-width: 1; stroke-dasharray: none; stroke-linecap: butt; stroke-dashoffset: 0; stroke-linejoin: miter; stroke-miterlimit: 4; fill: rgb(52,49,49); fill-rule: nonzero; opacity: 1;"  transform=" translate(-712.52, -581.14)" d="M 698.895264 592.948486 C 695.551941 586.147034 695.582764 579.397156 697.422974 572.671204 C 699.325317 565.717957 704.733826 562.504333 713.298401 562.713318 C 721.427734 562.911682 726.540161 566.470642 727.980042 573.514771 C 728.704163 577.056946 729.019897 580.797302 728.775879 584.397644 C 728.334106 590.914978 725.854431 596.389587 718.980957 598.605835 C 711.532104 601.007812 703.903259 598.936035 698.895264 592.948486 M 720.829163 578.850586 C 720.522766 577.220337 720.385193 575.535156 719.875977 573.971008 C 718.700073 570.358826 716.114258 568.741211 712.289795 568.815979 C 708.595764 568.888245 705.840637 570.779541 705.371948 574.105164 C 704.734192 578.629944 704.733643 583.375916 705.356567 587.903564 C 705.816467 591.246155 708.571106 593.117737 712.269653 593.190918 C 716.083862 593.266357 718.868225 591.737488 719.853455 588.077637 C 720.576355 585.392517 720.554626 582.506897 720.829163 578.850586 z" stroke-linecap="round" />
</g>
<g transform="matrix(0.99 0 0 0.99 464.3 300.73)" id="Layer_1"  >
<path style="stroke: none; stroke-width: 1; stroke-dasharray: none; stroke-linecap: butt; stroke-dashoffset: 0; stroke-linejoin: miter; stroke-miterlimit: 4; fill: rgb(51,47,48); fill-rule: nonzero; opacity: 1;"  transform=" translate(-749.5, -581.47)" d="M 745.781982 599.098877 C 737.913391 596.752075 735.023376 592.988037 734.977478 585.332764 C 734.935547 578.347351 734.968567 571.36145 734.968567 563.818909 C 737.536133 563.700317 739.911987 563.590576 743.043396 563.445984 C 743.043396 569.610413 742.981445 575.351746 743.072327 581.090637 C 743.111572 583.568115 742.802856 586.38562 743.860413 588.420898 C 744.978577 590.572754 747.550354 593.356018 749.458252 593.334106 C 751.507385 593.31073 754.241821 590.716187 755.351624 588.560974 C 756.470947 586.387451 756.095764 583.378296 756.140259 580.731201 C 756.232239 575.25824 756.16803 569.782593 756.16803 563.880981 C 758.918884 563.880981 761.32019 563.880981 764.037598 563.880981 C 764.037598 575.328979 764.037598 586.724548 764.037598 599.497864 C 761.246582 598.309631 759.137817 597.411865 757.462646 596.698669 C 753.889221 597.46814 750.025574 598.30011 745.781982 599.098877 z" stroke-linecap="round" />
</g>
<g transform="matrix(0.99 0 0 0.99 642.86 300.91)" id="Layer_1"  >
<path style="stroke: none; stroke-width: 1; stroke-dasharray: none; stroke-linecap: butt; stroke-dashoffset: 0; stroke-linejoin: miter; stroke-miterlimit: 4; fill: rgb(51,47,48); fill-rule: nonzero; opacity: 1;"  transform=" translate(-930.51, -581.65)" d="M 915.980652 579.958984 C 915.981262 574.344604 915.981262 569.22229 915.981262 563.780029 C 918.778259 563.780029 921.187805 563.780029 924.055481 563.780029 C 924.055481 570.511658 924.007324 576.959961 924.068604 583.407166 C 924.13324 590.203125 926.228027 593.596741 930.264771 593.692383 C 934.599792 593.795044 937.040894 590.263 937.13739 583.445007 C 937.226685 577.135315 937.156433 570.823486 937.156433 563.981567 C 939.892334 563.981567 942.379639 563.981567 945.114807 563.981567 C 945.114807 575.376099 945.114807 586.621887 945.114807 599.208923 C 942.451111 598.26355 940.35144 597.518372 937.343567 596.450867 C 933.937256 599.922791 928.421631 600.568237 922.746155 597.790955 C 916.871155 594.916016 915.565552 589.496155 915.97168 583.443665 C 916.03833 582.450378 915.980408 581.44873 915.980652 579.958984 z" stroke-linecap="round" />
</g>
<g transform="matrix(0.99 0 0 0.99 196.77 300.15)" id="Layer_1"  >
<path style="stroke: none; stroke-width: 1; stroke-dasharray: none; stroke-linecap: butt; stroke-dashoffset: 0; stroke-linejoin: miter; stroke-miterlimit: 4; fill: rgb(53,49,49); fill-rule: nonzero; opacity: 1;"  transform=" translate(-478.3, -580.88)" d="M 484.930908 596.548218 C 484.911194 590.440186 484.942719 584.787109 484.886963 579.134888 C 484.870667 577.483887 484.731934 575.811584 484.428131 574.190491 C 483.827423 570.984741 482.28183 568.435791 478.61969 568.487976 C 474.661743 568.544312 472.36792 571.056396 472.142181 574.753113 C 471.747589 581.215332 471.679657 587.712891 471.834534 594.187012 C 471.917145 597.641174 470.873291 598.792969 467.327515 598.814148 C 463.510071 598.836914 463.517334 596.837646 463.540863 594.083069 C 463.625732 584.139648 463.574249 574.195007 463.574249 562.833069 C 466.522369 563.889526 468.664124 564.657043 471.586334 565.704285 C 474.939453 562.220886 480.326904 561.55249 485.919983 564.16748 C 491.580994 566.814209 493.197266 571.87439 493.050873 577.83313 C 492.887848 584.46936 493.01355 591.112671 493.01355 599.194092 C 489.950439 598.362061 487.449646 597.6828 484.930908 596.548218 z" stroke-linecap="round" />
</g>
<g transform="matrix(0.99 0 0 0.99 285.77 299.72)" id="Layer_1"  >
<path style="stroke: none; stroke-width: 1; stroke-dasharray: none; stroke-linecap: butt; stroke-dashoffset: 0; stroke-linejoin: miter; stroke-miterlimit: 4; fill: rgb(51,47,48); fill-rule: nonzero; opacity: 1;"  transform=" translate(-568.52, -580.45)" d="M 553.861328 596.553223 C 553.846924 585.475647 553.846924 574.855347 553.846924 562.976868 C 556.696777 563.89093 558.905884 564.599426 561.92688 565.568359 C 565.586487 562.164001 570.96228 561.58374 576.509399 564.374573 C 582.167114 567.221008 583.34552 572.405518 583.170776 578.286255 C 582.974915 584.880493 583.125732 591.485046 583.125732 598.305969 C 580.205811 598.305969 577.825745 598.305969 575.021912 598.305969 C 575.021912 591.641235 575.070557 585.354675 574.993225 579.069641 C 574.968994 577.096863 575.210388 574.735779 574.248779 573.254456 C 572.972656 571.288452 570.652527 568.798157 568.751282 568.77301 C 566.792114 568.747009 564.425903 571.118469 562.949036 572.999451 C 561.969849 574.246521 562.034424 576.471375 561.99353 578.266785 C 561.876099 583.417542 562.056396 588.576538 561.869934 593.723328 C 561.811646 595.331482 561.00116 598.251282 560.462463 598.268311 C 558.282288 598.336975 556.073792 597.508057 553.861328 596.553223 z" stroke-linecap="round" />
</g>
<g transform="matrix(0.99 0 0 0.99 108.1 300.52)" id="Layer_1"  >
<path style="stroke: none; stroke-width: 1; stroke-dasharray: none; stroke-linecap: butt; stroke-dashoffset: 0; stroke-linejoin: miter; stroke-miterlimit: 4; fill: rgb(52,49,49); fill-rule: nonzero; opacity: 1;"  transform=" translate(-388.42, -581.26)" d="M 382.882385 599.042969 C 381.030548 598.64856 379.337891 598.633606 378.204559 597.829895 C 376.994598 596.971863 376.312744 595.36908 375.40033 594.091431 C 376.88147 593.534546 378.371277 592.494446 379.841919 592.520935 C 382.949921 592.576904 386.101044 593.693481 389.128662 593.373535 C 390.772217 593.199829 392.198517 590.970459 393.722809 589.668274 C 392.481354 588.31665 391.472717 586.525208 389.944092 585.716248 C 387.633301 584.493225 384.9711 583.919617 382.438629 583.133179 C 377.597992 581.629944 375.586029 578.14502 375.648254 573.320801 C 375.710754 568.47583 377.984955 564.346924 382.6875 563.703918 C 387.575073 563.035645 392.729919 564.050598 397.721863 564.68927 C 398.534943 564.793274 399.109833 566.759033 399.79483 567.864258 C 398.488708 568.504395 397.164215 569.709961 395.88028 569.668213 C 393.110779 569.578064 390.322174 568.353577 387.620697 568.572388 C 386.116669 568.694275 383.956879 570.596313 383.624939 572.046814 C 383.379517 573.119385 385.344391 575.24939 386.79657 576.028625 C 388.943542 577.180603 391.512482 577.541687 393.89621 578.257935 C 398.76889 579.722107 401.412415 582.892883 401.432404 588.091309 C 401.452301 593.25946 398.858765 596.81543 394.072937 598.101013 C 390.638458 599.023682 386.893921 598.792053 382.882385 599.042969 z" stroke-linecap="round" />
</g>
<g transform="matrix(0.99 0 0 0.99 556.92 300.19)" id="Layer_1"  >
<path style="stroke: none; stroke-width: 1; stroke-dasharray: none; stroke-linecap: butt; stroke-dashoffset: 0; stroke-linejoin: miter; stroke-miterlimit: 4; fill: rgb(52,49,49); fill-rule: nonzero; opacity: 1;"  transform=" translate(-843.39, -580.92)" d="M 848.311646 598.550293 C 843.195251 598.506226 838.397644 598.555786 833.694519 597.913574 C 832.438049 597.742065 831.470337 595.455872 830.370117 594.140503 C 831.995667 593.628174 833.621521 592.694031 835.246643 592.695496 C 838.196655 592.698059 841.214172 593.769226 844.070129 593.389832 C 845.750305 593.166626 847.173401 591.008606 848.712097 589.720825 C 847.490417 588.358337 846.508118 586.54718 844.991272 585.738037 C 842.685181 584.507996 840.021179 583.931213 837.486267 583.151489 C 832.645142 581.662476 830.619263 578.196594 830.638367 573.368713 C 830.657715 568.48584 833.417847 564.026184 838.086792 563.471863 C 842.71759 562.922058 847.562195 563.755371 852.24884 564.428772 C 853.245972 564.57196 853.966064 566.643494 854.813782 567.82666 C 853.356873 568.430786 851.894775 569.540344 850.444153 569.525574 C 848.005737 569.500732 845.49353 568.185364 843.167053 568.512329 C 841.438904 568.755371 839.955444 570.739075 838.362915 571.947388 C 839.634216 573.390381 840.692444 575.153015 842.238647 576.183777 C 843.695068 577.154846 845.662781 577.36438 847.410583 577.892273 C 853.966797 579.872742 856.095642 582.147888 856.386169 587.56073 C 856.689514 593.21106 853.759521 596.574097 848.311646 598.550293 z" stroke-linecap="round" />
</g>
<g transform="matrix(0.99 0 0 0.99 785.55 300.38)" id="Layer_1"  >
<path style="stroke: none; stroke-width: 1; stroke-dasharray: none; stroke-linecap: butt; stroke-dashoffset: 0; stroke-linejoin: miter; stroke-miterlimit: 4; fill: rgb(52,49,49); fill-rule: nonzero; opacity: 1;"  transform=" translate(-1075.16, -581.13)" d="M 1088.049194 590.50769 C 1084.39624 599.008972 1069.776733 602.604004 1063.244751 596.916443 C 1062.57959 596.337402 1062.022949 594.504028 1062.374146 594.112976 C 1063.209351 593.182678 1064.653442 592.189026 1065.790161 592.256348 C 1068.897949 592.440552 1072.013794 593.695007 1075.047729 593.468567 C 1076.903076 593.330139 1078.613037 591.242676 1080.388306 590.030518 C 1079.001465 588.467529 1077.875366 586.459229 1076.161011 585.455566 C 1074.069946 584.231384 1071.482666 583.857056 1069.113281 583.10498 C 1064.521729 581.647644 1062.433594 578.201355 1062.394653 573.687805 C 1062.356201 569.228394 1064.206909 565.440063 1068.688843 563.890991 C 1075.104492 561.673523 1081.294067 562.195251 1087.067017 566.146484 C 1086.282593 569.525757 1084.918091 570.529907 1081.654419 569.488831 C 1079.073242 568.665527 1076.087891 568.485657 1073.406372 568.875244 C 1072.151855 569.057495 1070.554199 571.154175 1070.318115 572.582458 C 1070.158081 573.551086 1071.886108 575.265686 1073.147461 575.932983 C 1075.018066 576.922485 1077.22229 577.281799 1079.285645 577.905701 C 1086.656006 580.13446 1088.158203 582.212524 1088.049194 590.50769 z" stroke-linecap="round" />
</g>
<g transform="matrix(0.99 0 0 0.99 377.91 300.21)" id="Layer_1"  >
<path style="stroke: none; stroke-width: 1; stroke-dasharray: none; stroke-linecap: butt; stroke-dashoffset: 0; stroke-linejoin: miter; stroke-miterlimit: 4; fill: rgb(52,49,49); fill-rule: nonzero; opacity: 1;"  transform=" translate(-661.93, -580.96)" d="M 674.383972 596.74884 C 660.284241 603.806946 649.012634 597.127869 648.873047 581.864441 C 648.843018 578.579407 649.09552 575.127502 650.083984 572.028748 C 652.914856 563.153076 666.705872 559.269043 673.934875 565.157288 C 674.61731 565.713196 675.2276 567.368774 674.892761 567.933289 C 674.345398 568.856018 673.009216 569.793274 671.975952 569.827637 C 670.56189 569.874756 669.132812 569.03241 667.687317 568.660217 C 664.087646 567.733398 661.089233 568.654968 658.951782 571.779175 C 656.07666 575.98175 656.135803 586.455017 659.059875 590.473633 C 661.294128 593.544067 664.327881 594.308533 667.89624 593.297424 C 668.855347 593.025635 669.810181 592.739075 670.767456 592.460571 C 674.684814 591.320557 675.719788 592.936951 674.383972 596.74884 z" stroke-linecap="round" />
</g>
<g transform="matrix(0.99 0 0 0.99 80.93 296.09)" id="Layer_1"  >
<path style="stroke: none; stroke-width: 1; stroke-dasharray: none; stroke-linecap: butt; stroke-dashoffset: 0; stroke-linejoin: miter; stroke-miterlimit: 4; fill: rgb(56,52,52); fill-rule: nonzero; opacity: 1;"  transform=" translate(-360.87, -576.77)" d="M 364.744873 559.242432 C 363.765991 564.013977 367.200531 563.366394 369.903717 563.807068 C 369.996033 565.332275 370.081635 566.746826 370.188507 568.512695 C 368.371307 568.770813 366.811737 568.99231 364.827545 569.27417 C 364.827545 575.824951 364.656525 582.449402 364.970581 589.050781 C 365.034088 590.385498 367.062378 591.55072 367.946045 592.945374 C 368.716766 594.161682 369.514008 595.579285 369.558594 596.932434 C 369.576996 597.489502 367.689331 598.548096 366.611969 598.629578 C 360.792389 599.070007 357.065002 595.983093 356.760437 589.93866 C 356.418915 583.160645 356.681976 576.352234 356.681976 569.422424 C 354.93927 569.110046 353.681549 568.884644 352.424072 568.655884 C 350.514832 565.985046 351.727997 564.033691 356.372528 562.791382 C 355.119354 556.798035 359.398804 555.916931 364.197937 554.872498 C 364.397461 556.331299 364.566498 557.567261 364.744873 559.242432 z" stroke-linecap="round" />
</g>
<g transform="matrix(0.99 0 0 0.99 670.63 296.12)" id="Layer_1"  >
<path style="stroke: none; stroke-width: 1; stroke-dasharray: none; stroke-linecap: butt; stroke-dashoffset: 0; stroke-linejoin: miter; stroke-miterlimit: 4; fill: rgb(56,52,52); fill-rule: nonzero; opacity: 1;"  transform=" translate(-958.67, -576.8)" d="M 964.745117 598.701782 C 956.732849 597.76123 954.461914 595.46521 954.26416 587.960938 C 954.102844 581.840149 954.231323 575.711792 954.231323 570.752441 C 952.130188 568.854858 949.858948 567.739929 949.684265 566.359741 C 949.535461 565.182983 951.797668 563.701172 953.773743 561.47522 C 952.867493 557.024658 957.099976 555.95575 962.048706 554.906433 C 962.253113 557.511658 962.452881 560.057556 962.676514 562.907471 C 964.163086 563.211487 965.729065 563.531799 967.657593 563.92627 C 967.657593 565.375244 967.657593 566.883484 967.657593 568.603027 C 965.901733 568.831787 964.317749 569.038147 962.463013 569.279724 C 962.463013 575.80011 962.263367 582.088318 962.603699 588.347168 C 962.688477 589.907288 964.21936 591.775696 965.605469 592.795959 C 968.309143 594.786011 968.323914 596.540771 964.745117 598.701782 z" stroke-linecap="round" />
</g>
<g transform="matrix(0.99 0 0 0.99 133.9 296.05)" id="Layer_1"  >
<path style="stroke: none; stroke-width: 1; stroke-dasharray: none; stroke-linecap: butt; stroke-dashoffset: 0; stroke-linejoin: miter; stroke-miterlimit: 4; fill: rgb(53,49,49); fill-rule: nonzero; opacity: 1;"  transform=" translate(-414.57, -576.73)" d="M 410.056091 571.32666 C 409.688019 570.239624 409.356384 569.103333 408.950043 569.075989 C 406.796143 568.930969 404.454651 568.707764 405.333527 565.889221 C 405.76416 564.50824 407.863037 563.6474 409.735107 562.120239 C 408.661743 557.070374 412.811737 555.95929 417.863373 555.005249 C 418.027039 557.594543 418.187042 560.125793 418.368073 562.989868 C 420.040771 563.305237 421.748749 563.627319 423.35556 563.930298 C 425.542694 569.334595 421.611115 568.914062 418.197205 569.148865 C 418.197205 575.78479 418.086029 582.254822 418.291962 588.714844 C 418.332642 589.99054 419.367615 592.072266 420.332672 592.330688 C 423.850342 593.272461 423.494629 595.446472 422.895996 597.955566 C 414.938019 599.79126 410.422089 596.617126 410.12204 588.771667 C 409.905823 583.118225 410.065857 577.450439 410.056091 571.32666 z" stroke-linecap="round" />
</g>
<g transform="matrix(0.99 0 0 0.99 403.38 293.11)" id="Layer_1"  >
<path style="stroke: none; stroke-width: 1; stroke-dasharray: none; stroke-linecap: butt; stroke-dashoffset: 0; stroke-linejoin: miter; stroke-miterlimit: 4; fill: rgb(51,47,47); fill-rule: nonzero; opacity: 1;"  transform=" translate(-687.74, -573.76)" d="M 689.936523 563.011719 C 689.936523 570.825867 689.855286 578.144043 689.976379 585.458862 C 690.025146 588.405273 688.870667 591.885864 692.998535 593.548035 C 693.569031 593.777771 693.828003 596.194153 693.35144 597.167358 C 692.963867 597.959106 691.242737 598.510193 690.139648 598.46814 C 685.229126 598.280762 682.078125 595.360046 681.999512 590.202576 C 681.792053 576.584534 681.929199 562.961304 681.929199 549.039795 C 684.555115 549.039795 686.964417 549.039795 689.936523 549.039795 C 689.936523 553.645874 689.936523 558.080139 689.936523 563.011719 z" stroke-linecap="round" />
</g>
<g transform="matrix(0.99 0 0 0.99 619.29 293.13)" id="Layer_1"  >
<path style="stroke: none; stroke-width: 1; stroke-dasharray: none; stroke-linecap: butt; stroke-dashoffset: 0; stroke-linejoin: miter; stroke-miterlimit: 4; fill: rgb(51,47,47); fill-rule: nonzero; opacity: 1;"  transform=" translate(-906.61, -573.78)" d="M 900.844116 573.99939 C 900.844116 565.394287 900.844116 557.289062 900.844116 549.044617 C 903.740173 549.044617 906.162964 549.044617 908.936523 549.044617 C 908.936523 561.632507 908.888977 573.917358 908.974304 586.201416 C 908.992615 588.84259 908.080322 591.925842 911.802246 593.409485 C 912.44043 593.663879 912.541687 596.12677 912.257385 597.431335 C 912.135071 597.992493 910.391357 598.528809 909.39209 598.514893 C 904.358215 598.444458 901.214233 595.359741 900.960571 589.960083 C 900.718994 584.815979 900.867188 579.653625 900.844116 573.99939 z" stroke-linecap="round" />
</g>
<g transform="matrix(0.99 0 0 0.99 689.09 300.41)" id="Layer_1"  >
<path style="stroke: none; stroke-width: 1; stroke-dasharray: none; stroke-linecap: butt; stroke-dashoffset: 0; stroke-linejoin: miter; stroke-miterlimit: 4; fill: rgb(58,54,54); fill-rule: nonzero; opacity: 1;"  transform=" translate(-977.38, -581.15)" d="M 981.504211 575.046387 C 981.504089 582.991394 981.504089 590.443787 981.504089 597.75531 C 974.061279 599.883423 973.259949 599.311279 973.256836 592.319153 C 973.25354 585.005981 973.25293 577.692749 973.252197 570.379578 C 973.251465 562.91571 973.252014 562.91571 981.504333 563.936584 C 981.504333 567.397461 981.504333 570.975586 981.504211 575.046387 z" stroke-linecap="round" />
</g>
<g transform="matrix(0.99 0 0 0.99 260.49 300.29)" id="Layer_1"  >
<path style="stroke: none; stroke-width: 1; stroke-dasharray: none; stroke-linecap: butt; stroke-dashoffset: 0; stroke-linejoin: miter; stroke-miterlimit: 4; fill: rgb(48,44,44); fill-rule: nonzero; opacity: 1;"  transform=" translate(-542.89, -581.02)" d="M 538.979431 588.945923 C 538.987427 580.352417 538.987427 572.249146 538.987427 563.813232 C 541.763367 563.813232 544.165833 563.813232 546.806885 563.813232 C 546.806885 575.324036 546.806885 586.555908 546.806885 598.235352 C 544.407349 598.235352 542.039795 598.235352 538.971436 598.235352 C 538.971436 595.270325 538.971436 592.353149 538.979431 588.945923 z" stroke-linecap="round" />
</g>
<g transform="matrix(0.99 0 0 0.99 688.79 272.58)" id="Layer_1"  >
<path style="stroke: none; stroke-width: 1; stroke-dasharray: none; stroke-linecap: butt; stroke-dashoffset: 0; stroke-linejoin: miter; stroke-miterlimit: 4; fill: rgb(58,54,54); fill-rule: nonzero; opacity: 1;"  transform=" translate(-977.08, -552.93)" d="M 977.061646 548.712646 C 978.721741 548.832153 979.982056 548.951599 981.234253 549.070312 C 981.234253 551.671387 981.234253 553.924377 981.234253 556.651123 C 978.301147 556.098755 974.610535 559.281372 973.439148 554.477783 C 972.921021 552.352905 971.597778 548.354187 977.061646 548.712646 z" stroke-linecap="round" />
</g>
<g transform="matrix(0.99 0 0 0.99 260.61 272.33)" id="Layer_1"  >
<path style="stroke: none; stroke-width: 1; stroke-dasharray: none; stroke-linecap: butt; stroke-dashoffset: 0; stroke-linejoin: miter; stroke-miterlimit: 4; fill: rgb(52,49,49); fill-rule: nonzero; opacity: 1;"  transform=" translate(-543.01, -552.7)" d="M 539.682373 549.051147 C 542.180237 548.874268 544.291321 548.874268 546.726807 548.874268 C 546.726807 551.436096 546.726807 553.792175 546.726807 556.518433 C 544.334351 556.518433 541.983704 556.518433 539.295532 556.518433 C 539.295532 553.99176 539.295532 551.609863 539.682373 549.051147 z" stroke-linecap="round" />
</g>
</svg>